# xmcd CD database file
#
# Track frame offsets:
#	150
#	14288
#	28033
#	47441
#	57261
#	80366
#	92316
#	103126
#	116361
#	129131
#
# Disc length: 1835 seconds
#
# Revision: 7
# Processed by: cddbd v1.4PL0 Copyright (c) Steve Scherf et al.
# Submitted via: CDex 1.40Release
#
DISCID=6a07290a
DTITLE=Various Artist - Ladies Sing the Blues
DYEAR=1900
DGENRE=Blues
TTITLE0=God Bless The Child - Billie Holiday
TTITLE1=Basin Street Blues - Ella Fitzgerald
TTITLE2=Ain't No Piece Of Cake - Ruth Brown
TTITLE3=The Same Old Sotry - Big Maybelle
TTITLE4=New York State Of Mind - Carmen McCrae
TTITLE5=Mean To Me - Sarah Vaughan
TTITLE6=Stormy Weather - Della Reese
TTITLE7=Begging Mama Blues - Dinah Washington
TTITLE8=St. Louis Blues - Pearl Bailey
TTITLE9=Please Don't Talk About Me When I'm Gone - Billie Holiday
EXTD=ID3G: 0
EXTT0=
EXTT1=
EXTT2=
EXTT3=
EXTT4=
EXTT5=
EXTT6=
EXTT7=
EXTT8=
EXTT9=
PLAYORDER=
